<?xml version="1.0" encoding="utf-8"?>
<!-- Generator: Adobe Illustrator 16.0.0, SVG Export Plug-In . SVG Version: 6.00 Build 0)  -->
<!DOCTYPE svg PUBLIC "-//W3C//DTD SVG 1.1//EN" "http://www.w3.org/Graphics/SVG/1.1/DTD/svg11.dtd" [
	<!ENTITY ns_extend "http://ns.adobe.com/Extensibility/1.0/">
	<!ENTITY ns_ai "http://ns.adobe.com/AdobeIllustrator/10.0/">
	<!ENTITY ns_graphs "http://ns.adobe.com/Graphs/1.0/">
	<!ENTITY ns_vars "http://ns.adobe.com/Variables/1.0/">
	<!ENTITY ns_imrep "http://ns.adobe.com/ImageReplacement/1.0/">
	<!ENTITY ns_sfw "http://ns.adobe.com/SaveForWeb/1.0/">
	<!ENTITY ns_custom "http://ns.adobe.com/GenericCustomNamespace/1.0/">
	<!ENTITY ns_adobe_xpath "http://ns.adobe.com/XPath/1.0/">
]>
<svg version="1.1" id="Layer_1" xmlns:x="&ns_extend;" xmlns:i="&ns_ai;" xmlns:graph="&ns_graphs;"
	 xmlns="http://www.w3.org/2000/svg" xmlns:xlink="http://www.w3.org/1999/xlink" x="0px" y="0px" width="500px" height="500px"
	 viewBox="0 0 500 500" enable-background="new 0 0 500 500" xml:space="preserve">
<metadata>
	<sfw  xmlns="&ns_sfw;">
		<slices></slices>
		<sliceSourceBounds  width="447.946" height="447.358" y="22.188" x="29.898" bottomLeftOrigin="true"></sliceSourceBounds>
	</sfw>
</metadata>
<path fill-rule="evenodd" clip-rule="evenodd" d="M352.62,125.655c12.193-15.098,24.394-30.191,36.576-45.299
	c6.112-7.58,12.147-15.221,18.297-22.771c5.313-6.524,9.528-7.001,15.939-1.591c16.434,13.867,32.81,27.803,49.142,41.791
	c6.585,5.638,6.908,9.896,1.478,16.631c-39.593,49.116-79.253,98.179-118.68,147.429c-2.282,2.851-3.817,7.186-3.829,10.835
	c-0.216,62.489-0.122,124.979-0.134,187.468c-0.002,11.547-6.164,17.665-17.709,17.665c-94.951-0.001-189.903-0.017-284.854-0.044
	c-13.429-0.004-18.944-5.494-18.944-18.765c-0.004-136.342-0.006-272.682,0.002-409.024c0.002-14.259,5.076-19.361,19.473-19.371
	c74.862-0.057,149.724-0.031,224.586-0.155c6.727-0.011,11.955,2.054,16.716,6.977c17.344,17.94,34.839,35.741,52.64,53.224
	c5.81,5.705,8.8,11.81,8.158,19.936c-0.379,4.813-0.068,9.679-0.068,14.522C351.812,125.294,352.216,125.475,352.62,125.655z
	 M266.489,232.401c-37.088,0-72.395,0.004-107.702-0.001c-18.468-0.003-36.937-0.045-55.404-0.023
	c-4.302,0.004-7.326-1.681-7.23-6.249c0.089-4.236,3.132-5.819,7.065-5.888c2.435-0.043,4.87-0.063,7.306-0.063
	c53.782,0.009,107.564,0.065,161.346-0.105c2.396-0.007,5.548-1.437,7.06-3.267c13.439-16.269,26.603-32.767,39.794-49.239
	c0.976-1.219,2.177-2.762,2.194-4.166c0.165-13.708,0.1-27.42,0.1-41.664c-16.609,0-32.406,0.056-48.202-0.025
	c-7.86-0.041-11.098-3.237-11.167-11.102c-0.114-12.785-0.03-25.572-0.03-38.358c0-3.368,0-6.737,0-10.14
	c-67.57,0-134.208,0-200.992,0c0,128.241,0,256.009,0,384.005c86.869,0,173.397,0,259.853,0c0-46.971,0-93.563,0-141.18
	c-13.854,17.151-26.928,33.446-40.164,49.609c-2.136,2.606-4.653,5.248-7.563,6.817c-24.456,13.191-49.024,26.175-73.627,39.089
	c-2.237,1.174-4.953,2.005-7.452,2.021c-28.815,0.173-57.632,0.126-86.447,0.223c-4.638,0.016-9.224-0.465-9.05-6.264
	c0.17-5.701,4.827-6.011,9.407-5.988c17.86,0.087,35.719,0.039,53.579,0.042c8.287,0.001,16.573,0,25.097,0
	c4.445-15.376,8.743-30.243,13.155-45.505c-2.368-0.185-3.757-0.387-5.144-0.387c-21.106-0.007-42.213,0.024-63.319,0.021
	c-8.93-0.001-17.86,0.006-26.786-0.121c-3.901-0.056-6.6-2.535-5.835-6.114c0.484-2.263,3.461-4.255,5.724-5.768
	c1.13-0.754,3.161-0.172,4.783-0.172c28.413-0.004,56.833-0.317,85.237,0.211c7.37,0.139,10.422-2.286,11.802-9.091
	c2.558-12.627,6.676-24.634,16.271-33.959c0.172-0.169-0.033-0.728-0.083-1.386c-1.561-0.069-3.134-0.202-4.708-0.202
	c-30.241-0.006-60.48,0.005-90.72,0.011c-7.307,0.003-14.616,0.09-21.92-0.03c-4.022-0.067-6.724-2.199-6.569-6.36
	c0.141-3.771,2.616-5.761,6.481-5.785c1.42-0.009,2.842-0.019,4.262-0.019c39.778-0.001,79.557-0.061,119.335,0.096
	c3.88,0.016,6.349-1.145,8.671-4.176c5.796-7.57,11.921-14.889,17.905-22.315C257.07,244.134,261.33,238.821,266.489,232.401z
	 M434.036,89.153c-5.838-4.953-11.188-9.49-16.732-14.196c-1.523,1.778-2.728,3.112-3.854,4.508
	c-56.694,70.267-113.079,140.786-170.31,210.613c-12.287,14.992-21.18,30.749-25.369,49.52c-0.973,4.354-0.715,7.032,3.091,9.679
	c4.798,3.334,8.935,9.904,13.753,10.305c5.151,0.427,10.943-4.404,16.131-7.489c6.013-3.576,13.048-6.632,17.276-11.834
	c61.689-75.883,122.982-152.085,184.357-228.222c1.101-1.365,2.058-2.848,3.237-4.494c-4.19-3.549-8.032-6.803-12.129-10.271
	c-1.516,1.739-2.87,3.195-4.116,4.74c-58.334,72.329-116.657,144.667-174.995,216.994c-1.268,1.571-2.438,3.686-4.12,4.333
	c-1.974,0.76-5.225,1.084-6.526-0.031c-1.576-1.353-2.333-4.435-2.234-6.717c0.074-1.713,1.948-3.432,3.209-4.997
	c40.866-50.709,81.759-101.397,122.642-152.093C396.056,136.298,414.751,113.084,434.036,89.153z"/>
<path fill-rule="evenodd" clip-rule="evenodd" d="M192.307,162.289c27.982,0,55.965,0,83.948,0.001c1.419,0,2.84,0.046,4.257-0.001
	c4.108-0.139,6.847,1.693,6.943,5.871c0.098,4.221-2.731,6.148-6.724,6.192c-9.124,0.102-18.25,0.099-27.374,0.098
	c-48.869-0.011-97.737-0.034-146.606-0.051c-0.202,0-0.404,0-0.607,0c-4.549-0.008-9.843,0.307-9.941-6
	c-0.098-6.332,5.118-6.179,9.726-6.178c28.792,0.012,57.585,0.006,86.378,0.006C192.307,162.248,192.307,162.269,192.307,162.289z"
	/>
</svg>
