<?xml version="1.0" encoding="utf-8"?>
<!-- Generator: Adobe Illustrator 16.0.0, SVG Export Plug-In . SVG Version: 6.00 Build 0)  -->
<!DOCTYPE svg PUBLIC "-//W3C//DTD SVG 1.1//EN" "http://www.w3.org/Graphics/SVG/1.1/DTD/svg11.dtd" [
	<!ENTITY ns_extend "http://ns.adobe.com/Extensibility/1.0/">
	<!ENTITY ns_ai "http://ns.adobe.com/AdobeIllustrator/10.0/">
	<!ENTITY ns_graphs "http://ns.adobe.com/Graphs/1.0/">
	<!ENTITY ns_vars "http://ns.adobe.com/Variables/1.0/">
	<!ENTITY ns_imrep "http://ns.adobe.com/ImageReplacement/1.0/">
	<!ENTITY ns_sfw "http://ns.adobe.com/SaveForWeb/1.0/">
	<!ENTITY ns_custom "http://ns.adobe.com/GenericCustomNamespace/1.0/">
	<!ENTITY ns_adobe_xpath "http://ns.adobe.com/XPath/1.0/">
]>
<svg version="1.1" id="Layer_1" xmlns:x="&ns_extend;" xmlns:i="&ns_ai;" xmlns:graph="&ns_graphs;"
	 xmlns="http://www.w3.org/2000/svg" xmlns:xlink="http://www.w3.org/1999/xlink" x="0px" y="0px" width="500px" height="500px"
	 viewBox="0 0 500 500" enable-background="new 0 0 500 500" xml:space="preserve">
<metadata>
	<sfw  xmlns="&ns_sfw;">
		<slices></slices>
		<sliceSourceBounds  width="476.778" height="395.566" y="52.217" x="12" bottomLeftOrigin="true"></sliceSourceBounds>
	</sfw>
</metadata>
<path fill-rule="evenodd" clip-rule="evenodd" d="M453.537,91.833c-85.363-2.417-170.225-4.818-255.555-7.234
	c-1.237,11.089-2.264,21.687-3.621,32.243c-7.836,61.02-18.033,121.518-40.267,179.307c-0.376,0.979-0.912,1.922-1.121,2.934
	c-1.232,5.992-4.745,7.79-10.792,7.245c-8.545-0.772-17.177-0.591-25.771-0.841c-0.386-0.012-0.765-0.268-1.337-0.479
	c-0.025-0.502-0.263-1.171-0.049-1.624c18.731-39.592,29.133-81.711,36.198-124.587c5.857-35.545,9.903-71.398,14.298-107.17
	c1.775-14.453,6.96-19.787,21.394-19.388c93.083,2.581,186.169,5.18,279.253,7.78c1.885,0.053,3.773,0.149,5.654,0.293
	c12.039,0.925,18.18,8.271,16.752,20.221c-4.422,37.05-8.338,74.171-13.496,111.118c-6.73,48.203-16.191,95.907-30.475,142.515
	c-8.119,26.497-17.506,52.563-32.791,75.938c-5.014,7.666-10.906,14.919-17.307,21.477c-11.055,11.327-24.814,16.43-40.842,16.196
	c-78.43-1.146-156.864-2.431-235.301-2.878c-36.068-0.205-63.189-15.372-83.119-44.691c-10.467-15.397-18.002-32.156-22.517-50.22
	c-3.093-12.373,3.91-21.456,16.609-21.217c52.843,0.998,105.685,2.141,158.524,3.273c31.033,0.667,62.063,1.577,93.1,2.027
	c9.475,0.138,15.229,4.128,19.945,12.375c9.65,16.876,20.01,33.388,30.895,49.497c3.885,5.746,9.719,10.458,15.4,14.643
	c9.35,6.885,17.734,6.758,25.242-1.956c7.697-8.933,14.553-18.982,19.854-29.513c14.021-27.852,22.189-57.855,29.602-87.999
	c15.545-63.235,24.9-127.508,31.611-192.206C453.721,96.876,453.537,94.8,453.537,91.833z M304.074,414.819
	c-0.734-1.164-1.248-1.985-1.768-2.804c-8.523-13.437-17.273-26.738-25.436-40.393c-2.438-4.078-4.764-5.858-9.678-5.95
	c-69.835-1.316-139.665-2.876-209.495-4.37c-1.785-0.038-3.572-0.005-5.62-0.005c12.638,33.064,36.437,51.754,65.412,51.679
	c49.705-0.128,99.413,1.187,149.119,1.819C278.893,414.952,291.18,414.819,304.074,414.819z"/>
<path fill-rule="evenodd" clip-rule="evenodd" d="M315.092,144.429c23.045,0.77,46.09,1.538,69.135,2.307
	c1.258,0.042,2.516,0.066,3.771,0.142c7.592,0.457,12.018,4.392,11.6,10.298c-0.404,5.688-5.063,9.083-12.254,8.875
	c-10.059-0.292-20.115-0.587-30.174-0.929c-36.871-1.25-73.742-2.514-110.613-3.785c-10.026-0.347-14.618-3.586-14.419-10.107
	c0.199-6.522,5.086-9.422,15.073-9.086c22.627,0.761,45.256,1.474,67.883,2.205C315.094,144.376,315.094,144.403,315.092,144.429z"
	/>
<path fill-rule="evenodd" clip-rule="evenodd" d="M304.113,192.277c20.346,0.679,40.689,1.358,61.037,2.038
	c1.107,0.037,2.219,0.058,3.326,0.125c6.703,0.404,10.611,3.877,10.242,9.091c-0.355,5.022-4.471,8.019-10.818,7.835
	c-8.879-0.257-17.758-0.519-26.639-0.82c-32.551-1.104-65.102-2.219-97.654-3.341c-8.852-0.306-12.906-3.166-12.73-8.923
	c0.176-5.758,4.491-8.318,13.307-8.021c19.978,0.672,39.955,1.301,59.931,1.947C304.113,192.231,304.113,192.255,304.113,192.277z"
	/>
<path fill-rule="evenodd" clip-rule="evenodd" d="M293.207,234.142c17.314,0.578,34.631,1.156,51.947,1.734
	c0.943,0.031,1.889,0.05,2.832,0.106c5.705,0.343,9.029,3.3,8.715,7.737c-0.303,4.274-3.803,6.824-9.205,6.669
	c-7.559-0.219-15.115-0.441-22.672-0.698c-27.705-0.94-55.408-1.89-83.113-2.844c-7.533-0.26-10.983-2.694-10.834-7.595
	c0.15-4.9,3.822-7.079,11.325-6.826c17.003,0.571,34.006,1.107,51.006,1.657C293.207,234.103,293.207,234.122,293.207,234.142z"/>
</svg>
