<?xml version="1.0" encoding="utf-8"?>
<!-- Generator: Adobe Illustrator 16.0.0, SVG Export Plug-In . SVG Version: 6.00 Build 0)  -->
<!DOCTYPE svg PUBLIC "-//W3C//DTD SVG 1.1//EN" "http://www.w3.org/Graphics/SVG/1.1/DTD/svg11.dtd" [
	<!ENTITY ns_extend "http://ns.adobe.com/Extensibility/1.0/">
	<!ENTITY ns_ai "http://ns.adobe.com/AdobeIllustrator/10.0/">
	<!ENTITY ns_graphs "http://ns.adobe.com/Graphs/1.0/">
	<!ENTITY ns_vars "http://ns.adobe.com/Variables/1.0/">
	<!ENTITY ns_imrep "http://ns.adobe.com/ImageReplacement/1.0/">
	<!ENTITY ns_sfw "http://ns.adobe.com/SaveForWeb/1.0/">
	<!ENTITY ns_custom "http://ns.adobe.com/GenericCustomNamespace/1.0/">
	<!ENTITY ns_adobe_xpath "http://ns.adobe.com/XPath/1.0/">
]>
<svg version="1.1" id="Layer_1" xmlns:x="&ns_extend;" xmlns:i="&ns_ai;" xmlns:graph="&ns_graphs;"
	 xmlns="http://www.w3.org/2000/svg" xmlns:xlink="http://www.w3.org/1999/xlink" x="0px" y="0px" width="500px" height="500px"
	 viewBox="0 0 500 500" enable-background="new 0 0 500 500" xml:space="preserve">
<metadata>
	<sfw  xmlns="&ns_sfw;">
		<slices></slices>
		<sliceSourceBounds  width="449.623" height="449.125" y="23.323" x="23.511" bottomLeftOrigin="true"></sliceSourceBounds>
	</sfw>
</metadata>
<path fill-rule="evenodd" clip-rule="evenodd" d="M248.503,27.555c68.315,0,136.632-0.009,204.948,0.006
	c12.387,0.003,19.653,7.523,19.66,20.546c0.035,60.703,0.003,121.404,0,182.107c-0.001,45.05-0.024,90.103,0.023,135.152
	c0.019,17.357-6.382,23.731-23.652,23.727c-132.402-0.039-264.804-0.216-397.204,0.159c-20.886,0.06-28.882-4.949-28.766-28.471
	c0.511-103.847,0.211-207.698,0.236-311.548c0.002-15.003,6.704-21.634,21.709-21.636c67.681-0.01,135.362-0.003,203.045-0.003
	C248.503,27.581,248.503,27.567,248.503,27.555z M445.964,331.821c0-4.133,0-7.69,0-11.249c-0.013-82.28-0.04-164.559-0.022-246.838
	c0.003-13.96-5.964-20.236-19.943-20.243c-118.238-0.048-236.477-0.062-354.716-0.053c-14.501,0.001-20.219,5.816-20.224,20.563
	c-0.029,82.917-0.015,165.832-0.015,248.748c0,2.903,0,5.805,0,9.072C182.885,331.821,313.934,331.821,445.964,331.821z"/>
<path fill-rule="evenodd" clip-rule="evenodd" d="M245.778,476.667c-21.136,0-42.273,0.029-63.409-0.013
	c-10.701-0.022-13.975-4.133-12.119-14.729c2.843-16.229,5.714-32.457,8.297-48.731c0.641-4.039,1.925-5.665,6.353-5.646
	c40.794,0.174,81.588,0.151,122.383,0.018c3.887-0.013,5.457,0.899,6.097,5.021c2.623,16.904,5.743,33.729,8.585,50.601
	c1.594,9.464-1.733,13.371-11.508,13.403c-21.561,0.074-43.118,0.022-64.679,0.022C245.778,476.63,245.778,476.649,245.778,476.667z
	"/>
<path fill-rule="evenodd" clip-rule="evenodd" d="M206.521,147.903c0.032,11.167-9.263,20.584-20.456,20.726
	c-11.519,0.145-21.219-9.303-21.224-20.67c-0.005-11.303,9.834-20.947,21.196-20.772
	C197.29,127.359,206.488,136.661,206.521,147.903z"/>
<path fill-rule="evenodd" clip-rule="evenodd" d="M76.348,219.119c0.006-11.593,9.35-20.949,20.894-20.919
	c11.292,0.03,20.68,9.751,20.573,21.306c-0.1,10.833-9.362,20.055-20.291,20.201C85.881,239.862,76.343,230.59,76.348,219.119z"/>
<path fill-rule="evenodd" clip-rule="evenodd" d="M294.864,235.362c11.168,0.119,20.563,9.521,20.615,20.634
	c0.055,11.474-9.451,20.809-21.07,20.689c-11.335-0.119-20.553-9.297-20.602-20.519C273.755,244.77,283.399,235.24,294.864,235.362z
	"/>
<path fill-rule="evenodd" clip-rule="evenodd" d="M401.469,163.861c-11.395-0.097-20.883-9.879-20.631-21.269
	c0.244-11.041,10.013-20.266,21.183-20.007c11.522,0.268,20.518,9.315,20.471,20.59C422.441,154.828,413.161,163.96,401.469,163.861
	z"/>
<path fill-rule="evenodd" clip-rule="evenodd" d="M322.021,236.387c-3.293-3.115-6.027-5.703-9.162-8.669
	c20.52-21.544,40.974-43.018,61.604-64.676c3.054,2.838,5.795,5.386,9.154,8.508C363.149,193.094,342.753,214.564,322.021,236.387z"
	/>
<path fill-rule="evenodd" clip-rule="evenodd" d="M274.172,228.774c-2.246,2.522-4.757,5.342-7.583,8.517
	c-20.359-20.891-40.519-41.579-60.659-62.244c2.236-1.965,5.194-4.567,8.422-7.403C233.997,187.718,254.162,208.326,274.172,228.774
	z"/>
<path fill-rule="evenodd" clip-rule="evenodd" d="M156.143,163.98c2.852,3.45,5.245,6.348,8.022,9.71
	c-12.234,9.969-24.435,19.912-36.923,30.088c-2.61-3.305-5.019-6.354-7.739-9.801C131.772,183.933,143.79,174.095,156.143,163.98z"
	/>
</svg>
