<?xml version="1.0" encoding="utf-8"?>
<!-- Generator: Adobe Illustrator 16.0.0, SVG Export Plug-In . SVG Version: 6.00 Build 0)  -->
<!DOCTYPE svg PUBLIC "-//W3C//DTD SVG 1.1//EN" "http://www.w3.org/Graphics/SVG/1.1/DTD/svg11.dtd" [
	<!ENTITY ns_extend "http://ns.adobe.com/Extensibility/1.0/">
	<!ENTITY ns_ai "http://ns.adobe.com/AdobeIllustrator/10.0/">
	<!ENTITY ns_graphs "http://ns.adobe.com/Graphs/1.0/">
	<!ENTITY ns_vars "http://ns.adobe.com/Variables/1.0/">
	<!ENTITY ns_imrep "http://ns.adobe.com/ImageReplacement/1.0/">
	<!ENTITY ns_sfw "http://ns.adobe.com/SaveForWeb/1.0/">
	<!ENTITY ns_custom "http://ns.adobe.com/GenericCustomNamespace/1.0/">
	<!ENTITY ns_adobe_xpath "http://ns.adobe.com/XPath/1.0/">
]>
<svg version="1.1" id="Layer_1" xmlns:x="&ns_extend;" xmlns:i="&ns_ai;" xmlns:graph="&ns_graphs;"
	 xmlns="http://www.w3.org/2000/svg" xmlns:xlink="http://www.w3.org/1999/xlink" x="0px" y="0px" width="500px" height="500px"
	 viewBox="0 0 500 500" enable-background="new 0 0 500 500" xml:space="preserve">
<metadata>
	<sfw  xmlns="&ns_sfw;">
		<slices></slices>
		<sliceSourceBounds  width="457.962" height="316.54" y="93.237" x="22.019" bottomLeftOrigin="true"></sliceSourceBounds>
	</sfw>
</metadata>
<path fill-rule="evenodd" clip-rule="evenodd" d="M250.719,90.237c61.423,0,122.846-0.044,184.269,0.021
	c26.753,0.029,44.958,18.271,44.97,44.938c0.032,75.538,0.032,151.077,0,226.615c-0.012,26.672-18.366,44.926-44.993,44.927
	c-122.846,0.003-245.691,0.004-368.538,0.025c-25.719,0.005-44.356-18.495-44.373-44.355c-0.044-75.737-0.046-151.474,0.001-227.211
	c0.016-26.675,18.304-44.898,44.992-44.914c61.224-0.036,122.448-0.012,183.673-0.012C250.719,90.26,250.719,90.249,250.719,90.237z
	 M251.04,377.997c61.003,0,122.005,0.005,183.009-0.004c12.144-0.002,17.299-5.196,17.304-17.454
	c0.017-74.714,0.025-149.427,0.023-224.14c0-12.202-5.19-17.396-17.401-17.397c-121.808-0.009-243.614-0.009-365.422,0.002
	c-13.015,0.001-17.913,4.921-17.917,18.062c-0.02,74.514-0.017,149.028-0.004,223.542c0.002,12.202,5.211,17.393,17.401,17.394
	C129.035,378.013,190.039,378.007,251.04,377.997z"/>
<path fill-rule="evenodd" clip-rule="evenodd" d="M146.832,334.888c-18.272,0-36.543,0.033-54.815-0.014
	c-8.703-0.022-12.652-4.003-12.775-12.781c-0.07-4.964,0.252-9.943-0.028-14.893c-0.891-15.815,6.306-27.505,18.524-36.55
	c27.232-20.162,72.75-19.96,99.686,0.482c11.739,8.909,18.636,20.397,17.844,35.709c-0.247,4.754-0.028,9.531-0.051,14.297
	c-0.049,10.002-3.718,13.735-13.569,13.745C183.375,334.902,165.103,334.89,146.832,334.888z"/>
<path fill-rule="evenodd" clip-rule="evenodd" d="M333.271,234.039c19.451,0,38.9-0.029,58.351,0.012
	c10.227,0.021,16.796,5.714,16.808,14.414c0.012,8.713-6.5,14.467-16.767,14.482c-38.898,0.055-77.797,0.059-116.698,0.001
	c-10.285-0.016-16.819-5.764-16.819-14.433c-0.002-8.694,6.674-14.49,16.777-14.5c19.449-0.018,38.899-0.004,58.349-0.004
	C333.271,234.02,333.271,234.029,333.271,234.039z"/>
<path fill-rule="evenodd" clip-rule="evenodd" d="M333.35,205.214c-19.646,0-39.293,0.029-58.938-0.012
	c-9.843-0.021-16.258-5.708-16.234-14.233c0.021-8.623,6.408-14.478,16.122-14.489c39.293-0.043,78.585-0.037,117.878,0.003
	c9.742,0.01,16.251,5.856,16.246,14.355c-0.005,8.607-6.32,14.339-16.137,14.375c-19.646,0.07-39.293,0.021-58.938,0.021
	C333.35,205.227,333.35,205.221,333.35,205.214z"/>
<path fill-rule="evenodd" clip-rule="evenodd" d="M333.345,291.778c19.649-0.008,39.3-0.021,58.947-0.002
	c9.728,0.008,16.169,5.776,16.129,14.371c-0.039,8.581-6.455,14.361-16.236,14.372c-39.3,0.042-78.597,0.049-117.896,0.003
	c-9.732-0.01-16.099-5.859-16.12-14.507c-0.023-8.539,6.399-14.207,16.229-14.22C294.048,291.77,313.695,291.788,333.345,291.778z"
	/>
<path fill-rule="evenodd" clip-rule="evenodd" d="M112.319,197.471c-0.045-19.617,15.621-35.426,35.051-35.371
	c19.158,0.054,34.596,15.631,34.748,35.063c0.15,19.289-15.37,35.208-34.45,35.335C128.084,232.631,112.365,217.054,112.319,197.471
	z"/>
</svg>
