<?xml version="1.0" encoding="utf-8"?>
<!-- Generator: Adobe Illustrator 16.0.0, SVG Export Plug-In . SVG Version: 6.00 Build 0)  -->
<!DOCTYPE svg PUBLIC "-//W3C//DTD SVG 1.1//EN" "http://www.w3.org/Graphics/SVG/1.1/DTD/svg11.dtd" [
	<!ENTITY ns_extend "http://ns.adobe.com/Extensibility/1.0/">
	<!ENTITY ns_ai "http://ns.adobe.com/AdobeIllustrator/10.0/">
	<!ENTITY ns_graphs "http://ns.adobe.com/Graphs/1.0/">
	<!ENTITY ns_vars "http://ns.adobe.com/Variables/1.0/">
	<!ENTITY ns_imrep "http://ns.adobe.com/ImageReplacement/1.0/">
	<!ENTITY ns_sfw "http://ns.adobe.com/SaveForWeb/1.0/">
	<!ENTITY ns_custom "http://ns.adobe.com/GenericCustomNamespace/1.0/">
	<!ENTITY ns_adobe_xpath "http://ns.adobe.com/XPath/1.0/">
]>
<svg version="1.1" id="Layer_1" xmlns:x="&ns_extend;" xmlns:i="&ns_ai;" xmlns:graph="&ns_graphs;"
	 xmlns="http://www.w3.org/2000/svg" xmlns:xlink="http://www.w3.org/1999/xlink" x="0px" y="0px" width="500px" height="500px"
	 viewBox="0 0 500 500" enable-background="new 0 0 500 500" xml:space="preserve">
<metadata>
	<sfw  xmlns="&ns_sfw;">
		<slices></slices>
		<sliceSourceBounds  width="478.604" height="463.102" y="20.586" x="10.698" bottomLeftOrigin="true"></sliceSourceBounds>
	</sfw>
</metadata>
<path fill-rule="evenodd" clip-rule="evenodd" d="M85.886,411.34c-2.963,0-5.408,0-7.854,0c-17.514-0.003-35.027,0.056-52.54-0.024
	c-9.644-0.046-14.758-5.135-14.761-14.625c-0.03-97.992-0.047-195.981-0.017-293.971c0.005-13.952,3.888-17.776,17.861-17.837
	c17.278-0.077,34.557-0.019,52.455-0.019c0.36-2.939,0.763-5.536,0.988-8.149c1.339-15.575,2.586-31.16,3.973-46.732
	c0.853-9.601,6.786-14.386,16.479-13.583c70.836,5.871,141.673,11.725,212.508,17.602c19.11,1.586,38.216,3.231,57.323,4.858
	c9.574,0.816,14.547,6.729,13.73,16.366c-0.807,9.532-1.658,19.06-2.587,29.667c7.937,0,15.337,0.005,22.736-0.001
	c3.127-0.002,6.259-0.128,9.381-0.021c9.2,0.318,14.195,5.309,14.302,14.586c0.139,12.091,0.039,24.187,0.043,36.279
	c0,2.25,0,4.499,0,7.446c7.636-0.565,14.628-1.1,21.624-1.593c10.999-0.777,16.553,3.937,17.337,14.722
	c6.406,88.151,12.806,176.301,19.207,264.452c0.408,5.613,0.96,11.219,1.203,16.836c0.404,9.309-4.22,14.57-13.47,15.249
	c-29.729,2.188-59.465,4.274-89.195,6.418c-65.699,4.73-131.397,9.479-197.098,14.206c-27.653,1.99-55.303,4.033-82.965,5.865
	c-11.218,0.743-15.977-3.839-16.766-15.085C88.572,447,87.249,429.755,85.886,411.34z M37.584,384.518
	c122.012,0,243.451,0,365.022,0c0-91.183,0-181.955,0-272.841c-121.889,0-243.316,0-365.022,0
	C37.584,202.708,37.584,293.34,37.584,384.518z M112.568,411.35c1.105,14.111,2.133,27.254,3.206,40.966
	c115.79-8.351,230.639-16.632,346.145-24.96c-6.345-86.457-12.638-172.205-18.981-258.657c-4.6,0.462-8.601,0.864-13.024,1.31
	c0,4.141,0,7.658,0,11.174c0,70.663,0.001,141.326-0.003,211.99c0,14.07-4.125,18.175-18.263,18.175
	c-85.461,0.003-170.921,0.003-256.383,0.003C141.335,411.35,127.404,411.35,112.568,411.35z M108.208,84.491
	c83.134,0,165.543,0,248.448,0c0.569-6.853,1.108-13.358,1.679-20.238c-82.676-6.858-164.406-13.638-246.725-20.467
	C110.451,57.665,109.348,70.854,108.208,84.491z"/>
<path fill-rule="evenodd" clip-rule="evenodd" d="M157.252,253.826c13.195-5.694,25.946-11.214,38.711-16.698
	c4.208-1.806,8.418-3.614,12.691-5.259c6.985-2.688,8.987-1.647,11.472,5.68c14.013,41.313-10.571,85.772-53.365,95.07
	c-30.147,6.549-56.116-2.23-75.134-26.616c-18.86-24.183-21.588-51.332-7.173-78.581c14.598-27.592,38.793-40.229,69.877-39.58
	c8.764,0.182,10.212,2.181,9.149,10.808c-2.088,16.947-4.163,33.896-6.211,50.848C157.126,250.691,157.252,251.918,157.252,253.826z
	"/>
<path fill-rule="evenodd" clip-rule="evenodd" d="M180.021,216.401c2.201-17.838,4.316-34.789,6.369-51.747
	c0.474-3.918,2.271-5.332,6.328-4.574c20.022,3.735,34.502,14.747,43.947,32.692c2.131,4.049,0.771,6.003-3.1,7.591
	c-15.795,6.484-31.5,13.19-47.289,19.688C181.345,222.08,179.751,220.78,180.021,216.401z"/>
<path fill-rule="evenodd" clip-rule="evenodd" d="M316.748,191.051c11.665,0,23.329-0.073,34.993,0.026
	c7.452,0.063,12.011,3.903,12.009,9.781c-0.001,5.916-4.583,10.04-11.875,10.07c-23.537,0.1-47.075,0.084-70.613-0.024
	c-7.341-0.033-12.013-4.085-12.042-9.892c-0.031-5.903,4.549-9.842,11.91-9.905c11.871-0.1,23.745-0.026,35.618-0.026
	C316.748,191.071,316.748,191.061,316.748,191.051z"/>
<path fill-rule="evenodd" clip-rule="evenodd" d="M316.588,247.59c11.666-0.003,23.331-0.022,34.998,0.004
	c7.35,0.017,11.963,3.705,12.162,9.633c0.197,5.895-4.509,10.153-11.679,10.176c-23.539,0.067-47.079,0.065-70.619-0.006
	c-7.443-0.021-12.048-3.827-12.214-9.708c-0.171-6.09,4.614-10.053,12.354-10.085C293.256,247.558,304.921,247.592,316.588,247.59z"
	/>
<path fill-rule="evenodd" clip-rule="evenodd" d="M316.349,324.843c-11.464,0-22.925,0.025-34.387-0.007
	c-7.805-0.022-12.564-3.716-12.763-9.809c-0.195-6.023,4.697-10.031,12.397-10.039c23.132-0.021,46.263-0.026,69.394,0.005
	c7.996,0.01,12.633,3.59,12.762,9.682c0.13,6.249-4.772,10.124-13.019,10.157C339.271,324.878,327.809,324.843,316.349,324.843z"/>
</svg>
