<?xml version="1.0" encoding="utf-8"?>
<!-- Generator: Adobe Illustrator 16.0.0, SVG Export Plug-In . SVG Version: 6.00 Build 0)  -->
<!DOCTYPE svg PUBLIC "-//W3C//DTD SVG 1.1//EN" "http://www.w3.org/Graphics/SVG/1.1/DTD/svg11.dtd" [
	<!ENTITY ns_extend "http://ns.adobe.com/Extensibility/1.0/">
	<!ENTITY ns_ai "http://ns.adobe.com/AdobeIllustrator/10.0/">
	<!ENTITY ns_graphs "http://ns.adobe.com/Graphs/1.0/">
	<!ENTITY ns_vars "http://ns.adobe.com/Variables/1.0/">
	<!ENTITY ns_imrep "http://ns.adobe.com/ImageReplacement/1.0/">
	<!ENTITY ns_sfw "http://ns.adobe.com/SaveForWeb/1.0/">
	<!ENTITY ns_custom "http://ns.adobe.com/GenericCustomNamespace/1.0/">
	<!ENTITY ns_adobe_xpath "http://ns.adobe.com/XPath/1.0/">
]>
<svg version="1.1" id="Layer_1" xmlns:x="&ns_extend;" xmlns:i="&ns_ai;" xmlns:graph="&ns_graphs;"
	 xmlns="http://www.w3.org/2000/svg" xmlns:xlink="http://www.w3.org/1999/xlink" x="0px" y="0px" width="500px" height="500px"
	 viewBox="0 0 500 500" enable-background="new 0 0 500 500" xml:space="preserve">
<metadata>
	<sfw  xmlns="&ns_sfw;">
		<slices></slices>
		<sliceSourceBounds  width="463.121" height="426.967" y="32.084" x="18.44" bottomLeftOrigin="true"></sliceSourceBounds>
	</sfw>
</metadata>
<path fill-rule="evenodd" clip-rule="evenodd" d="M63.852,422.806c124.275,0,247.816,0,372.199,0c0-3.102,0.001-5.908,0-8.715
	c-0.016-44.649-0.051-89.299-0.034-133.947c0.005-11.265,6.2-19.929,16.188-22.938c9.267-2.793,19.976,0.506,25.009,8.712
	c2.358,3.842,4.111,8.774,4.133,13.224c0.276,55.142,0.241,110.285,0.143,165.428c-0.026,14.296-9.647,23.267-24.657,23.282
	c-57.61,0.064-115.223,0.065-172.834,0.064c-79.627-0.003-159.255-0.028-238.882-0.043c-18.318-0.002-26.678-8.427-26.674-26.824
	c0.011-53.907-0.025-107.815,0.035-161.723c0.012-10.522,5.679-18.433,15.109-21.747c8.96-3.148,19.663-0.855,24.885,7.126
	c3.161,4.831,5.131,11.364,5.184,17.156c0.405,44.439,0.208,88.885,0.198,133.329C63.851,417.607,63.852,420.024,63.852,422.806z"/>
<path fill-rule="evenodd" clip-rule="evenodd" d="M248.112,185.03c-43.998,0.004-87.996,0.024-131.995-0.008
	c-12.45-0.01-16.766-4.293-16.876-16.538c-0.048-5.14-0.046-10.281,0.013-15.419c0.119-10.497,4.615-15.124,15.036-15.135
	c53.247-0.058,106.494-0.057,159.742-0.06c35.566-0.002,71.132,0.003,106.699,0.048c11.943,0.015,16.25,4.394,16.316,16.437
	c0.028,5.346,0.005,10.692-0.076,16.036c-0.147,9.77-5.066,14.615-15.013,14.623C337.343,185.043,292.729,185.027,248.112,185.03z"
	/>
<path fill-rule="evenodd" clip-rule="evenodd" d="M247.999,281.76c-44.196,0-88.392,0.016-132.587-0.01
	c-11.957-0.006-16.212-4.397-16.203-16.515c0.005-5.345-0.035-10.69,0.033-16.034c0.118-9.388,5.171-14.512,14.527-14.522
	c40.909-0.044,81.818-0.029,122.726-0.03c46.664-0.002,93.329,0,139.993,0.004c2.467,0,4.94-0.083,7.399,0.063
	c7.792,0.463,12.646,5.1,12.992,12.87c0.292,6.565,0.185,13.154,0.072,19.73c-0.164,9.652-4.852,14.376-14.515,14.413
	c-25.284,0.098-50.569,0.067-75.853,0.078c-19.529,0.009-39.058,0.003-58.585,0.003C247.999,281.793,247.999,281.777,247.999,281.76
	z"/>
<path fill-rule="evenodd" clip-rule="evenodd" d="M248.102,331.604c44.438,0.003,88.876,0,133.313,0.006
	c10.802,0.001,15.433,4.542,15.553,15.295c0.063,5.554,0.089,11.11-0.006,16.662c-0.174,10.341-4.831,15.05-15.225,15.083
	c-29.627,0.092-59.252,0.082-88.879,0.079c-58.633-0.006-117.268-0.031-175.902-0.054c-13.707-0.005-17.726-4.001-17.718-17.541
	c0.002-4.32-0.028-8.642-0.032-12.962c-0.009-12.255,4.386-16.574,16.817-16.573C160.05,331.604,204.077,331.602,248.102,331.604z"
	/>
<path fill-rule="evenodd" clip-rule="evenodd" d="M247.741,88.044c-44.026,0.005-88.049,0.011-132.075,0
	c-12.064-0.002-16.358-4.278-16.42-16.296c-0.025-4.731-0.025-9.463,0-14.194c0.064-12.269,4.375-16.536,16.878-16.548
	c43.408-0.04,86.817-0.058,130.227-0.058c44.437,0,88.874,0.027,133.311,0.053c13.216,0.007,17.419,4.236,17.337,17.31
	c-0.028,4.526,0.013,9.052,0.04,13.578c0.068,11.468-4.586,16.156-15.989,16.153C336.611,88.034,292.176,88.039,247.741,88.044z"/>
</svg>
